<?xml version="1.0" encoding="UTF-8"?>
<svg xmlns="http://www.w3.org/2000/svg" xmlns:xlink="http://www.w3.org/1999/xlink" viewBox="0 0 124.29 147.33">
  <defs>
    <style>
      .cls-1 {
        fill: url(#Gradient_148);
      }

      .cls-2 {
        fill: url(#Gradient_105-5);
      }

      .cls-3 {
        fill: url(#Gradient_105-25);
      }

      .cls-4 {
        fill: #ce2a92;
      }

      .cls-4, .cls-5, .cls-6, .cls-7, .cls-8, .cls-9, .cls-10, .cls-11, .cls-12, .cls-13, .cls-14, .cls-15, .cls-16, .cls-17, .cls-18, .cls-19, .cls-20, .cls-21, .cls-22, .cls-23, .cls-24, .cls-25, .cls-26, .cls-27, .cls-28, .cls-29, .cls-30, .cls-31, .cls-32, .cls-33 {
        mix-blend-mode: multiply;
      }

      .cls-34 {
        fill: url(#Gradient_156-2);
      }

      .cls-35, .cls-36, .cls-37, .cls-38 {
        fill: #fff;
      }

      .cls-39 {
        fill: #ffc7b0;
      }

      .cls-39, .cls-36, .cls-40, .cls-37, .cls-41, .cls-38, .cls-42, .cls-43, .cls-44 {
        mix-blend-mode: soft-light;
      }

      .cls-36, .cls-9, .cls-11, .cls-15, .cls-17, .cls-45, .cls-18, .cls-20, .cls-22, .cls-25, .cls-26, .cls-27, .cls-31 {
        opacity: .5;
      }

      .cls-46 {
        fill: url(#Gradient_156-4);
      }

      .cls-5 {
        fill: url(#Gradient_147-4);
      }

      .cls-5, .cls-8, .cls-12, .cls-13 {
        opacity: .92;
      }

      .cls-47 {
        fill: url(#Gradient_105);
      }

      .cls-48 {
        fill: url(#Gradient_106);
      }

      .cls-49 {
        fill: url(#Gradient_105-12);
      }

      .cls-6 {
        fill: url(#Gradient_153);
      }

      .cls-50 {
        fill: url(#Gradient_105-11);
      }

      .cls-7 {
        fill: url(#Gradient_153-2);
      }

      .cls-8 {
        fill: url(#Gradient_149);
      }

      .cls-51 {
        fill: url(#Gradient_21);
      }

      .cls-52 {
        fill: url(#Gradient_105-14);
      }

      .cls-53 {
        fill: url(#Gradient_105-2);
      }

      .cls-9 {
        fill: #9a2c3b;
      }

      .cls-54 {
        fill: url(#Gradient_150-2);
      }

      .cls-10 {
        fill: #742a92;
        opacity: .86;
      }

      .cls-55 {
        fill: url(#Gradient_105-3);
      }

      .cls-56 {
        fill: url(#Gradient_105-16);
      }

      .cls-57 {
        fill: url(#Gradient_154);
      }

      .cls-58 {
        isolation: isolate;
      }

      .cls-59 {
        fill: url(#Gradient_27);
      }

      .cls-60 {
        fill: url(#Gradient_89);
      }

      .cls-61 {
        fill: url(#Gradient_40-2);
      }

      .cls-11, .cls-16 {
        fill: #ac1f90;
      }

      .cls-12 {
        fill: url(#Gradient_147-3);
      }

      .cls-13 {
        fill: url(#Gradient_147-2);
      }

      .cls-62 {
        fill: url(#Gradient_145);
      }

      .cls-63 {
        fill: url(#Gradient_156-3);
      }

      .cls-14 {
        fill: url(#Gradient_91);
      }

      .cls-15 {
        fill: url(#Gradient_151);
      }

      .cls-40 {
        opacity: .58;
      }

      .cls-40, .cls-43 {
        fill: #ffcfb1;
      }

      .cls-16, .cls-21, .cls-38, .cls-43, .cls-28, .cls-44, .cls-30 {
        opacity: .3;
      }

      .cls-17 {
        fill: url(#Gradient_151-3);
      }

      .cls-64 {
        fill: url(#Gradient_40);
      }

      .cls-45 {
        fill: url(#Gradient_152);
      }

      .cls-45, .cls-65 {
        mix-blend-mode: screen;
      }

      .cls-18 {
        fill: #f1d7e8;
      }

      .cls-66 {
        fill: url(#Gradient_21-2);
      }

      .cls-41, .cls-67 {
        fill: #ffffd8;
      }

      .cls-68 {
        fill: #ff1f6a;
        mix-blend-mode: color-dodge;
      }

      .cls-19 {
        fill: #a62a92;
      }

      .cls-69 {
        fill: url(#Gradient_155);
      }

      .cls-70 {
        fill: url(#Gradient_156);
      }

      .cls-20 {
        fill: url(#Gradient_151-2);
      }

      .cls-21, .cls-32 {
        fill: #e38ca4;
      }

      .cls-71 {
        fill: url(#Gradient_105-10);
      }

      .cls-22 {
        fill: url(#Gradient_91-2);
      }

      .cls-23 {
        fill: url(#Gradient_153-3);
      }

      .cls-42 {
        fill: #ffb35b;
      }

      .cls-24 {
        fill: url(#Gradient_91-3);
        opacity: .17;
      }

      .cls-72 {
        fill: #ff9fff;
      }

      .cls-26 {
        fill: url(#Gradient_147);
      }

      .cls-73 {
        fill: url(#Gradient_105-24);
      }

      .cls-74 {
        fill: url(#Gradient_105-20);
      }

      .cls-75 {
        fill: url(#Gradient_105-8);
      }

      .cls-76 {
        fill: url(#Gradient_150);
      }

      .cls-65 {
        fill: url(#Gradient_152-2);
        opacity: .76;
      }

      .cls-77 {
        fill: url(#Gradient_93);
      }

      .cls-78 {
        fill: url(#Gradient_105-22);
      }

      .cls-79 {
        fill: url(#Gradient_144);
      }

      .cls-80 {
        fill: url(#Gradient_105-6);
      }

      .cls-81 {
        fill: url(#Gradient_105-21);
      }

      .cls-27 {
        fill: url(#Gradient_90);
      }

      .cls-82 {
        fill: url(#Gradient_106-2);
      }

      .cls-83 {
        fill: url(#Gradient_105-19);
      }

      .cls-84 {
        fill: #752037;
      }

      .cls-85 {
        fill: url(#Gradient_21-3);
      }

      .cls-86 {
        fill: url(#Gradient_105-18);
      }

      .cls-87 {
        fill: url(#Gradient_105-23);
      }

      .cls-28 {
        fill: url(#Gradient_91-4);
      }

      .cls-44 {
        fill: #e06886;
      }

      .cls-88 {
        fill: url(#Gradient_105-17);
      }

      .cls-29 {
        fill: #cd1f90;
        opacity: .97;
      }

      .cls-89 {
        fill: url(#Gradient_59);
      }

      .cls-90 {
        fill: url(#Gradient_105-13);
      }

      .cls-91 {
        fill: url(#Gradient_105-15);
      }

      .cls-30 {
        fill: url(#Gradient_157);
      }

      .cls-31 {
        fill: #eeb6e3;
      }

      .cls-92 {
        fill: url(#Gradient_105-7);
      }

      .cls-93 {
        fill: url(#Gradient_105-9);
      }

      .cls-32 {
        opacity: .6;
      }

      .cls-94 {
        fill: url(#Gradient_143);
      }

      .cls-95 {
        fill: url(#Gradient_145-2);
      }

      .cls-33 {
        fill: url(#Gradient_153-4);
      }

      .cls-96 {
        fill: url(#Gradient_105-4);
      }
    </style>
    <linearGradient id="Gradient_21" data-name="Gradient 21" x1="58.41" y1="-53.29" x2="58.41" y2="-60.91" gradientTransform="translate(3.69 79.32) rotate(-7.86)" gradientUnits="userSpaceOnUse">
      <stop offset="0" stop-color="#4f0c1f"/>
      <stop offset=".31" stop-color="#550f1f"/>
      <stop offset=".75" stop-color="#691a22"/>
      <stop offset="1" stop-color="#772224"/>
    </linearGradient>
    <linearGradient id="Gradient_144" data-name="Gradient 144" x1="-20.55" y1="221.04" x2="99.24" y2="221.04" gradientTransform="translate(63.76 -122.84) rotate(11.55)" gradientUnits="userSpaceOnUse">
      <stop offset="0" stop-color="#7c0c5e"/>
      <stop offset=".02" stop-color="#770c57"/>
      <stop offset=".04" stop-color="#690c43"/>
      <stop offset=".07" stop-color="#520c24"/>
      <stop offset=".08" stop-color="#4f0c1f"/>
      <stop offset=".54" stop-color="#551420"/>
      <stop offset="1" stop-color="#612224"/>
    </linearGradient>
    <linearGradient id="Gradient_143" data-name="Gradient 143" x1="-19.12" y1="175.26" x2="99.22" y2="175.26" gradientTransform="translate(63.76 -122.84) rotate(11.55)" gradientUnits="userSpaceOnUse">
      <stop offset="0" stop-color="#75251f"/>
      <stop offset="1" stop-color="#772224"/>
    </linearGradient>
    <linearGradient id="Gradient_145" data-name="Gradient 145" x1="-2" y1="210.69" x2="96.44" y2="210.69" gradientTransform="translate(63.76 -122.84) rotate(11.55)" gradientUnits="userSpaceOnUse">
      <stop offset=".07" stop-color="#a43148"/>
      <stop offset=".09" stop-color="#a53245"/>
      <stop offset=".19" stop-color="#b03c34"/>
      <stop offset=".32" stop-color="#b74328"/>
      <stop offset=".5" stop-color="#bb4721"/>
      <stop offset="1" stop-color="#bd4920"/>
    </linearGradient>
    <linearGradient id="Gradient_145-2" data-name="Gradient 145" x1="2.32" y1="243.22" x2="89.42" y2="243.22" xlink:href="#Gradient_145"/>
    <linearGradient id="Gradient_150" data-name="Gradient 150" x1="-.8" y1="220.12" x2="92.78" y2="233.36" gradientTransform="translate(63.76 -122.84) rotate(11.55)" gradientUnits="userSpaceOnUse">
      <stop offset="0" stop-color="#ff9da4"/>
      <stop offset="1" stop-color="#ffcfae"/>
    </linearGradient>
    <linearGradient id="Gradient_147" data-name="Gradient 147" x1="-7.05" y1="176.77" x2="89.44" y2="176.77" gradientTransform="translate(63.76 -122.84) rotate(11.55)" gradientUnits="userSpaceOnUse">
      <stop offset="0" stop-color="#fff"/>
      <stop offset=".09" stop-color="#fbf3f8"/>
      <stop offset=".24" stop-color="#f0d4e8"/>
      <stop offset=".45" stop-color="#dfa2ce"/>
      <stop offset=".7" stop-color="#c85ca9"/>
      <stop offset=".99" stop-color="#aa047b"/>
      <stop offset="1" stop-color="#a90079"/>
    </linearGradient>
    <linearGradient id="Gradient_147-2" data-name="Gradient 147" x1="47.57" y1="203.38" x2="47.57" y2="191.74" xlink:href="#Gradient_147"/>
    <linearGradient id="Gradient_147-3" data-name="Gradient 147" x1="45.85" y1="223.76" x2="45.85" y2="212.57" xlink:href="#Gradient_147"/>
    <linearGradient id="Gradient_147-4" data-name="Gradient 147" x1="45.38" y1="238.55" x2="45.38" y2="230.91" xlink:href="#Gradient_147"/>
    <linearGradient id="Gradient_105" data-name="Gradient 105" x1="113.81" y1="230.83" x2="113.81" y2="228.43" gradientTransform="translate(82.91 -161.38) rotate(19.6)" gradientUnits="userSpaceOnUse">
      <stop offset="0" stop-color="#ffdbea"/>
      <stop offset=".1" stop-color="#f8cfe2"/>
      <stop offset=".27" stop-color="#e8b0cd"/>
      <stop offset=".51" stop-color="#cd7eac"/>
      <stop offset=".79" stop-color="#a9397e"/>
      <stop offset="1" stop-color="#8b0059"/>
    </linearGradient>
    <linearGradient id="Gradient_105-2" data-name="Gradient 105" x1="100.55" y1="274.96" x2="100.55" y2="270.17" xlink:href="#Gradient_105"/>
    <linearGradient id="Gradient_105-3" data-name="Gradient 105" x1="97.23" y1="269.17" x2="97.23" y2="266.65" xlink:href="#Gradient_105"/>
    <linearGradient id="Gradient_105-4" data-name="Gradient 105" x1="73.13" y1="275.82" x2="73.13" y2="269.31" xlink:href="#Gradient_105"/>
    <linearGradient id="Gradient_105-5" data-name="Gradient 105" x1="100.22" y1="241.35" x2="100.22" y2="236.03" xlink:href="#Gradient_105"/>
    <linearGradient id="Gradient_105-6" data-name="Gradient 105" x1="104.74" y1="244.79" x2="104.74" y2="240.6" xlink:href="#Gradient_105"/>
    <linearGradient id="Gradient_105-7" data-name="Gradient 105" x1="62.5" y1="252.66" x2="62.5" y2="246.15" xlink:href="#Gradient_105"/>
    <linearGradient id="Gradient_105-8" data-name="Gradient 105" x1="110.32" y1="251.4" x2="110.32" y2="249.65" xlink:href="#Gradient_105"/>
    <linearGradient id="Gradient_105-9" data-name="Gradient 105" x1="43.8" y1="274.67" x2="43.8" y2="272.92" xlink:href="#Gradient_105"/>
    <linearGradient id="Gradient_105-10" data-name="Gradient 105" x1="70.03" y1="269.56" x2="70.03" y2="267.81" xlink:href="#Gradient_105"/>
    <linearGradient id="Gradient_105-11" data-name="Gradient 105" x1="82.06" y1="250.34" x2="82.06" y2="246.7" xlink:href="#Gradient_105"/>
    <linearGradient id="Gradient_105-12" data-name="Gradient 105" x1="88.59" y1="250.23" x2="88.59" y2="248.29" xlink:href="#Gradient_105"/>
    <linearGradient id="Gradient_105-13" data-name="Gradient 105" x1="58.32" y1="246.49" x2="58.32" y2="244.2" xlink:href="#Gradient_105"/>
    <linearGradient id="Gradient_105-14" data-name="Gradient 105" x1="74.9" y1="248.58" x2="74.9" y2="245.61" xlink:href="#Gradient_105"/>
    <linearGradient id="Gradient_105-15" data-name="Gradient 105" x1="109.12" y1="274.18" x2="109.12" y2="271.83" xlink:href="#Gradient_105"/>
    <linearGradient id="Gradient_105-16" data-name="Gradient 105" x1="72.29" y1="290.99" x2="72.29" y2="289.34" xlink:href="#Gradient_105"/>
    <linearGradient id="Gradient_105-17" data-name="Gradient 105" x1="25.11" y1="251.79" x2="25.11" y2="240.07" xlink:href="#Gradient_105"/>
    <linearGradient id="Gradient_105-18" data-name="Gradient 105" x1="39.99" y1="257.1" x2="39.99" y2="254.74" xlink:href="#Gradient_105"/>
    <linearGradient id="Gradient_105-19" data-name="Gradient 105" x1="53.39" y1="280.08" x2="53.39" y2="275.3" xlink:href="#Gradient_105"/>
    <linearGradient id="Gradient_105-20" data-name="Gradient 105" x1="50.12" y1="274.91" x2="50.12" y2="272.15" xlink:href="#Gradient_105"/>
    <linearGradient id="Gradient_105-21" data-name="Gradient 105" x1="51.48" y1="290.41" x2="51.48" y2="286.27" xlink:href="#Gradient_105"/>
    <linearGradient id="Gradient_105-22" data-name="Gradient 105" x1="82.58" y1="282.83" x2="82.58" y2="279.2" xlink:href="#Gradient_105"/>
    <linearGradient id="Gradient_105-23" data-name="Gradient 105" x1="99.61" y1="285.07" x2="99.61" y2="283.88" xlink:href="#Gradient_105"/>
    <linearGradient id="Gradient_105-24" data-name="Gradient 105" x1="113.39" y1="282.54" x2="113.39" y2="275.97" xlink:href="#Gradient_105"/>
    <linearGradient id="Gradient_105-25" data-name="Gradient 105" x1="39.64" y1="243.75" x2="39.64" y2="241.34" xlink:href="#Gradient_105"/>
    <linearGradient id="Gradient_152" data-name="Gradient 152" x1="-18.83" y1="170.54" x2="27.85" y2="170.54" gradientTransform="translate(63.76 -122.84) rotate(11.55)" gradientUnits="userSpaceOnUse">
      <stop offset="0" stop-color="#844fbd"/>
      <stop offset=".54" stop-color="#3a2354"/>
      <stop offset="1" stop-color="#000"/>
    </linearGradient>
    <linearGradient id="Gradient_106" data-name="Gradient 106" x1="174.77" y1="118.33" x2="172.32" y2="112.54" gradientTransform="translate(-123.6 -49.56) rotate(6.76) scale(1.16 1)" gradientUnits="userSpaceOnUse">
      <stop offset="0" stop-color="#a93d20"/>
      <stop offset=".32" stop-color="#a43822"/>
      <stop offset=".69" stop-color="#982929"/>
      <stop offset="1" stop-color="#891833"/>
    </linearGradient>
    <linearGradient id="Gradient_40" data-name="Gradient 40" x1="41.84" y1="293.63" x2="48.48" y2="293.63" gradientTransform="translate(122.92 -201.2) rotate(20.3)" gradientUnits="userSpaceOnUse">
      <stop offset="0" stop-color="#f94aae"/>
      <stop offset=".08" stop-color="#db6248"/>
      <stop offset=".17" stop-color="#e96c3b"/>
      <stop offset=".31" stop-color="#f57531"/>
      <stop offset=".5" stop-color="#fc7a2b"/>
      <stop offset="1" stop-color="#fe7c2a"/>
    </linearGradient>
    <linearGradient id="Gradient_106-2" data-name="Gradient 106" x1="226.55" y1="574.38" x2="223.74" y2="567.71" gradientTransform="translate(296.02 -452.24) rotate(47.53) scale(1.16 1)" xlink:href="#Gradient_106"/>
    <linearGradient id="Gradient_40-2" data-name="Gradient 40" x1="208.31" y1="723.19" x2="215.34" y2="723.19" gradientTransform="translate(581.65 -406.69) rotate(61.07)" xlink:href="#Gradient_40"/>
    <linearGradient id="Gradient_148" data-name="Gradient 148" x1="-290.97" y1="239.86" x2="-295.08" y2="230.12" gradientTransform="translate(253.44 -73.68) rotate(14.11) scale(.65 1)" gradientUnits="userSpaceOnUse">
      <stop offset="0" stop-color="#57090e"/>
      <stop offset=".15" stop-color="#500711"/>
      <stop offset=".65" stop-color="#3c011b"/>
      <stop offset="1" stop-color="#36001f"/>
    </linearGradient>
    <linearGradient id="Gradient_150-2" data-name="Gradient 150" x1="47.57" y1="234.91" x2="87.38" y2="240.54" xlink:href="#Gradient_150"/>
    <linearGradient id="Gradient_149" data-name="Gradient 149" x1="69.51" y1="248.01" x2="69.51" y2="231.02" gradientTransform="translate(63.76 -122.84) rotate(11.55)" gradientUnits="userSpaceOnUse">
      <stop offset="0" stop-color="#a90079"/>
      <stop offset=".01" stop-color="#aa047b"/>
      <stop offset=".3" stop-color="#c85ca9"/>
      <stop offset=".55" stop-color="#dfa2ce"/>
      <stop offset=".76" stop-color="#f0d4e8"/>
      <stop offset=".91" stop-color="#fbf3f8"/>
      <stop offset="1" stop-color="#fff"/>
    </linearGradient>
    <linearGradient id="Gradient_93" data-name="Gradient 93" x1="11.92" y1="10.14" x2="63.47" y2="-24.63" gradientTransform="translate(34.2 42.73) rotate(4.16)" gradientUnits="userSpaceOnUse">
      <stop offset="0" stop-color="#ff9a89"/>
      <stop offset="1" stop-color="#ffd1ba"/>
    </linearGradient>
    <linearGradient id="Gradient_91" data-name="Gradient 91" x1="40.51" y1="11.81" x2="40.51" y2="-7.92" gradientTransform="translate(34.2 42.73) rotate(4.16)" gradientUnits="userSpaceOnUse">
      <stop offset="0" stop-color="#d9005a"/>
      <stop offset=".21" stop-color="#e2397f"/>
      <stop offset=".49" stop-color="#ee7eac"/>
      <stop offset=".73" stop-color="#f7b0cd"/>
      <stop offset=".9" stop-color="#fccfe2"/>
      <stop offset="1" stop-color="#ffdbea"/>
    </linearGradient>
    <linearGradient id="Gradient_91-2" data-name="Gradient 91" x1="34.3" y1="-.62" x2="34.3" y2="-30.54" xlink:href="#Gradient_91"/>
    <linearGradient id="Gradient_89" data-name="Gradient 89" x1="17.41" y1="-32.14" x2="51.42" y2="-32.14" gradientTransform="translate(34.2 42.73) rotate(4.16)" gradientUnits="userSpaceOnUse">
      <stop offset="0" stop-color="#ffb390"/>
      <stop offset="1" stop-color="#ffd1ba"/>
    </linearGradient>
    <linearGradient id="Gradient_91-3" data-name="Gradient 91" x1="10.71" y1="-20.93" x2="51.51" y2="-20.93" xlink:href="#Gradient_91"/>
    <linearGradient id="Gradient_90" data-name="Gradient 90" x1="38.32" y1="-33.82" x2="38.32" y2="-44.69" gradientTransform="translate(34.2 42.73) rotate(4.16)" gradientUnits="userSpaceOnUse">
      <stop offset="0" stop-color="#ffdbea"/>
      <stop offset=".1" stop-color="#facfe2"/>
      <stop offset=".27" stop-color="#efb0cd"/>
      <stop offset=".51" stop-color="#dd7eac"/>
      <stop offset=".79" stop-color="#c5397f"/>
      <stop offset="1" stop-color="#b1005a"/>
    </linearGradient>
    <linearGradient id="Gradient_91-4" data-name="Gradient 91" x1="46.08" y1="5.44" x2="36.13" y2="-11.8" xlink:href="#Gradient_91"/>
    <linearGradient id="Gradient_154" data-name="Gradient 154" x1="58.51" y1="180.93" x2="58.51" y2="137.62" gradientTransform="translate(63.76 -122.84) rotate(11.55)" gradientUnits="userSpaceOnUse">
      <stop offset="0" stop-color="#f30"/>
      <stop offset=".25" stop-color="#e21f15"/>
      <stop offset=".54" stop-color="#c80e28"/>
      <stop offset=".8" stop-color="#b80333"/>
      <stop offset="1" stop-color="#b30038"/>
    </linearGradient>
    <linearGradient id="Gradient_151" data-name="Gradient 151" x1="56.85" y1="172" x2="56.85" y2="139.48" gradientTransform="translate(63.76 -122.84) rotate(11.55)" gradientUnits="userSpaceOnUse">
      <stop offset="0" stop-color="#ffdbea"/>
      <stop offset=".1" stop-color="#fbcfe2"/>
      <stop offset=".27" stop-color="#f2b0cd"/>
      <stop offset=".51" stop-color="#e27eac"/>
      <stop offset=".79" stop-color="#ce397e"/>
      <stop offset="1" stop-color="#bd0059"/>
    </linearGradient>
    <linearGradient id="Gradient_152-2" data-name="Gradient 152" x1="38.66" y1="147.5" x2="57.72" y2="147.5" xlink:href="#Gradient_152"/>
    <linearGradient id="Gradient_153" data-name="Gradient 153" x1="68.56" y1="162.09" x2="68.56" y2="157.13" gradientTransform="translate(63.76 -122.84) rotate(11.55)" gradientUnits="userSpaceOnUse">
      <stop offset="0" stop-color="#ffdbea"/>
      <stop offset=".1" stop-color="#f9cfe2"/>
      <stop offset=".27" stop-color="#e9b0cd"/>
      <stop offset=".51" stop-color="#cf7eac"/>
      <stop offset=".79" stop-color="#ad397e"/>
      <stop offset="1" stop-color="#900059"/>
    </linearGradient>
    <linearGradient id="Gradient_153-2" data-name="Gradient 153" x1="73.31" y1="158.81" x2="73.31" y2="155.84" xlink:href="#Gradient_153"/>
    <linearGradient id="Gradient_153-3" data-name="Gradient 153" x1="55.99" y1="151.98" x2="55.99" y2="148.79" xlink:href="#Gradient_153"/>
    <linearGradient id="Gradient_153-4" data-name="Gradient 153" x1="48.58" y1="164.72" x2="48.58" y2="159.69" xlink:href="#Gradient_153"/>
    <linearGradient id="Gradient_155" data-name="Gradient 155" x1="32.76" y1="185.99" x2="32.76" y2="162.35" gradientTransform="translate(63.76 -122.84) rotate(11.55)" gradientUnits="userSpaceOnUse">
      <stop offset="0" stop-color="#bf2200"/>
      <stop offset="1" stop-color="#c04d00"/>
    </linearGradient>
    <linearGradient id="Gradient_27" data-name="Gradient 27" x1="16.5" y1="185.47" x2="16.5" y2="133.17" gradientTransform="translate(63.76 -122.84) rotate(11.55)" gradientUnits="userSpaceOnUse">
      <stop offset="0" stop-color="#ff6900"/>
      <stop offset="1" stop-color="#ff9000"/>
    </linearGradient>
    <linearGradient id="Gradient_59" data-name="Gradient 59" x1="-13.12" y1="157.25" x2="45.5" y2="157.25" gradientTransform="translate(63.76 -122.84) rotate(11.55)" gradientUnits="userSpaceOnUse">
      <stop offset="0" stop-color="#ffbba4"/>
      <stop offset="1" stop-color="#ffd1c9"/>
    </linearGradient>
    <linearGradient id="Gradient_156" data-name="Gradient 156" x1="3.02" y1="153.26" x2="3.02" y2="134.03" gradientTransform="translate(63.76 -122.84) rotate(11.55)" gradientUnits="userSpaceOnUse">
      <stop offset="0" stop-color="#ff9000"/>
      <stop offset="1" stop-color="#ff6900"/>
    </linearGradient>
    <linearGradient id="Gradient_156-2" data-name="Gradient 156" x1="6.46" y1="177.38" x2="6.46" y2="145.8" xlink:href="#Gradient_156"/>
    <linearGradient id="Gradient_156-3" data-name="Gradient 156" x1="22.82" y1="179.33" x2="22.82" y2="145.06" xlink:href="#Gradient_156"/>
    <linearGradient id="Gradient_156-4" data-name="Gradient 156" x1="33.26" y1="170.21" x2="33.26" y2="145.27" xlink:href="#Gradient_156"/>
    <linearGradient id="Gradient_151-2" data-name="Gradient 151" x1="7.49" y1="177.5" x2="7.49" y2="148.86" xlink:href="#Gradient_151"/>
    <linearGradient id="Gradient_151-3" data-name="Gradient 151" x1="32.57" y1="167.09" x2="32.57" y2="145.27" xlink:href="#Gradient_151"/>
    <linearGradient id="Gradient_157" data-name="Gradient 157" x1="22.93" y1="184.93" x2="22.93" y2="170.39" gradientTransform="translate(63.76 -122.84) rotate(11.55)" gradientUnits="userSpaceOnUse">
      <stop offset="0" stop-color="#bd0059"/>
      <stop offset=".21" stop-color="#ce397e"/>
      <stop offset=".49" stop-color="#e27eac"/>
      <stop offset=".73" stop-color="#f2b0cd"/>
      <stop offset=".9" stop-color="#fbcfe2"/>
      <stop offset="1" stop-color="#ffdbea"/>
    </linearGradient>
    <linearGradient id="Gradient_21-2" data-name="Gradient 21" x1="28.77" y1="281.19" x2="28.77" y2="271.52" gradientTransform="translate(170.05 -254.76) rotate(26.1)" xlink:href="#Gradient_21"/>
    <linearGradient id="Gradient_21-3" data-name="Gradient 21" x1="34.1" y1="298.29" x2="34.1" y2="289.95" gradientTransform="translate(170.05 -254.76) rotate(26.1)" xlink:href="#Gradient_21"/>
  </defs>
  <g class="cls-58">
    <g id="Layer_2" data-name="Layer 2">
      <g id="objects">
        <g>
          <path class="cls-72" d="m17.72,132.56c-13.57-4.59-13.3-8.24-16.01-17.29S-.67,55.16,4.01,49.31c4.67-5.85,16.14-5.52,16.14-5.52,0,0-6.07-14.8-4.52-25.13,1.56-10.34,2.85-13.97,5.99-14.19,3.14-.22,26.18,14.02,26.18,14.02,0,0-.98-4.55,2.38-6.98s5.96-1.16,5.96-1.16c0,0,.66-5.41,6.87-8.28,6.21-2.87,9.05-1.92,9.05-1.92l-35.5,139.73-18.85-7.32Z"/>
          <path class="cls-51" d="m51.8,18.28c-3.84-1.45-2.75-7.74,2.99-7.35s2.72,9.5-2.99,7.35Z"/>
          <path class="cls-10" d="m50.48,17.41s1.46,1.4,4.59-.23c3.13-1.63,2.68-4.12,2.68-4.12,0,0,3.24,3.6-.24,5.67s-5.82,1.1-7.03-1.31Z"/>
          <path class="cls-40" d="m52.79,12.57c-.8,2.22,2.81,3.12,3.5,1.2.69-1.92-2.95-2.73-3.5-1.2Z"/>
          <path class="cls-79" d="m9.55,48.39C2.85,53.77-.77,114.91,5.93,123.52c15.18,19.5,81,27.6,93.03,22.14.54-.24.36-3.43-1.11-3.84-10.82-2.99-69.66-7.6-77.76-20.87-2.24-3.66,1.91-36.02,3.51-52.25.36-3.63,18.72,13.2,93.47,17.98,5.72.37,7.19-10.08,7.19-10.08-1.75-5.1-114.72-28.21-114.72-28.21Z"/>
          <path class="cls-94" d="m10.19,50.74c-9.21-4.98,40.1-11.1,54.39-8.2,21.66,4.38,55.65,25.86,59.58,33.39s-78.11-5.79-113.97-25.19Z"/>
          <path class="cls-62" d="m118.34,86.57c2.69,1.04-4.89,20.91-9.86,24.92-11.21,9.05-84.99-12.29-87.79-14.89-2.8-2.59.43-26.76,2.93-27.91,2.5-1.15,20.06,7.25,46.68,12.52,26.62,5.27,48.05,5.35,48.05,5.35Z"/>
          <path class="cls-95" d="m20.71,122.85c-3.33-4.94-1.72-20.2.08-20.23,1.8-.03,21.5,9.11,45.05,13.57,23.55,4.46,36.2,4.75,38.2,5.49,2,.74-3.53,19.66-6.03,21.82s-68.32-7.34-77.3-20.66Z"/>
          <path class="cls-76" d="m109.94,109.86c3.01,1.01,1.86,9.08-4.43,11.51-2.09.81-24.37-.68-53.99-8.05-27.76-6.92-31.56-3.9-32.61-5.72-.77-1.35-.7-15.95.69-16.36,1.39-.41,42.94,18.21,90.34,18.63Z"/>
          <path class="cls-26" d="m21.98,47.5c-3.49,1.94,22.2,15.62,53.31,22.18,31.11,6.56,38.39,4.31,39.88,2.51,1.49-1.81-32.56-18.86-41.41-22.02-8.85-3.16,17.07,5.18,21.3,15.7,4.23,10.52-26.15-21.14-73.08-18.37Z"/>
          <path class="cls-13" d="m118.9,88.29c-.27,2.41-21.34-1.17-47.67-4.13-26.33-2.95-42.47-13.1-46.14-13.51-3.67-.42-4,5.37-4,5.37,0,0-.34-5.8,1.75-8.96,2.09-3.17,20.11,6.28,50.89,12.99,30.78,6.71,47.48,4.55,47.48,4.55,0,0-.89.95-2.87,1.98,0,0,.72.22.56,1.72Z"/>
          <path class="cls-12" d="m19.85,85.14s12.4,11.48,44,18.38c31.6,6.9,47.87,3.84,47.87,3.84,0,0-.96,1.89-1.78,2.49-.82.6-17.35,2.08-47.23-4.58-29.88-6.66-42.42-12.86-43.11-14.05-.69-1.19.24-6.08.24-6.08Z"/>
          <path class="cls-5" d="m18.07,105.53s8.49.58,24.68,4.13c6.9,1.51,16.63,4.98,25.35,6.86,29.18,6.3,37.43,4.83,37.43,4.83l-1.13.29s.21,1.76-.86,5.76-15.96-6.29-46.29-11.42c-30.33-5.12-38.44-5.49-38.63-6.35-.19-.87.3-2.06.3-2.06l-.85-2.05Z"/>
          <g class="cls-25">
            <path class="cls-47" d="m112.33,92.16c-2.03,1.52,1.13,2.91,1.88,1.75.74-1.15-.74-2.6-1.88-1.75Z"/>
            <path class="cls-53" d="m82.83,128.39c-.2-3.49,8.48-1.57,6.51,2.32-1.97,3.89-2.22-.79-4.48-1.01s-2.01-.83-2.04-1.31Z"/>
            <path class="cls-55" d="m83.8,122.76c-.55,1.75.72,3.01,1.75,1.29s-1.5-2.08-1.75-1.29Z"/>
            <path class="cls-96" d="m56.29,121.14c-1.03-5.33,7.46-5.94,7.96-1.25s-7.57,3.23-7.96,1.25Z"/>
            <path class="cls-2" d="m94.45,95.87c-2.39,3.31,4.43,5.54,5.83,2.08,1.4-3.46-4.14-4.42-5.83-2.08Z"/>
            <path class="cls-80" d="m97.84,103.21c-2.21-3.73,6.92-3.25,4.97-.55s-4.27,1.72-4.97.55Z"/>
            <path class="cls-92" d="m54.88,92.81c-2.04,5.73,4.98,6,6.94,2.06,1.96-3.94-6.25-3.99-6.94-2.06Z"/>
            <path class="cls-75" d="m101.63,111.98c.14-1.5,1.65-1.66,2.11-.45s-2.15.9-2.11.45Z"/>
            <path class="cls-93" d="m31.16,111.58c.14-1.5,1.65-1.66,2.11-.45.46,1.22-2.15.9-2.11.45Z"/>
            <path class="cls-71" d="m57.58,115.57c.14-1.5,1.65-1.66,2.11-.45s-2.15.9-2.11.45Z"/>
            <path class="cls-50" d="m74.57,98.75c-2.29,2.76,3.45,4.4,4.84,2.45,1.39-1.95-3.7-3.82-4.84-2.45Z"/>
            <path class="cls-49" d="m81.34,102.44c-.86,1.3,2.45,2.49,2.89,1.26.44-1.23-2.29-2.17-2.89-1.26Z"/>
            <path class="cls-90" d="m54.87,87.85c-1.14-.2-.4,1.8,1.19,2.81,1.59,1.01-.27-2.65-1.19-2.81Z"/>
            <path class="cls-52" d="m69.95,95.22c-1.69,1.89-.08,3.72,1.51,1.94,1.59-1.78-1.01-2.51-1.51-1.94Z"/>
            <path class="cls-91" d="m92.53,132.62c.89-1.48,3.55-1.7,3,0-.55,1.7-3.33.54-3,0Z"/>
            <path class="cls-56" d="m52.81,136.12c.44-1.79,1.87-.21,1.57.56s-1.77.24-1.57-.56Z"/>
            <path class="cls-88" d="m23.16,72.74c2.41-1.69,5.01,5.69,2.39,9.78-2.62,4.09-4.81.75-4.48-.92.33-1.67,2.09-8.86,2.09-8.86Z"/>
            <path class="cls-86" d="m34.29,92.04c-.79.56-.39,1.35.55,2.29.94.95.9-3.32-.55-2.29Z"/>
            <path class="cls-83" d="m36.1,117.62c-1.49-1.73,2.07-3.35,5.24-1.44,3.17,1.91,2.55,5.34,2.12,5.61s-6.5-3.17-7.36-4.17Z"/>
            <path class="cls-74" d="m37.08,112.92c-.96,1.2,1.05,1.98,2.3.82,1.25-1.16-.46-3.12-2.3-.82Z"/>
            <path class="cls-81" d="m32.92,129.08c-4.3-1.7-2.15-5.54,1.31-3.9,3.46,1.63,5.18,3.35,4.52,3.47-.67.12-4.29,1.04-5.83.43Z"/>
            <path class="cls-78" d="m65.35,130.54c-2.15,3.05,1.49,2.07,2.61.17s-2.06-.95-2.61-.17Z"/>
            <path class="cls-87" d="m81.09,139.34c-1.18-.25-1.04,1.41.45,1.19s.73-.94-.45-1.19Z"/>
            <path class="cls-73" d="m94.97,138.03c-4.5,2.79-1.47,4.67.49,4.81,1.96.14,3.51-2.62,3.51-2.62,0,0,1.45-5.57-4-2.19Z"/>
            <path class="cls-3" d="m37.71,79.72c-.36,2.03,2.02,2.65,2.5.89.48-1.76-2.39-1.52-2.5-.89Z"/>
          </g>
          <path class="cls-18" d="m27.23,93.76c-4.58-.66-7.24,8.22,7.46,13.81,14.71,5.59,11.35-1.76,24.39-1.83,13.04-.07,11.23.79,16.03,2.92s12.66-.24,12.66-.24c0,0-7.25-.77-31.05-6.59-23.8-5.82-29.5-8.05-29.5-8.05Z"/>
          <path class="cls-38" d="m80.92,110.32c-17.74,1.75,4.6,9.66,13.82,9.23,9.22-.43,11.3-11.71-13.82-9.23Z"/>
          <path class="cls-44" d="m37.44,61.95c8.36,2.61,23.35,6.05,46.89,9.58s27.93,5.1,27.93,5.1c0,0-16.77,1.85-74.82-14.68Z"/>
          <path class="cls-44" d="m28.03,45.12c-6.4,1.73,16.8,3.74,31.62,5.77,14.82,2.03,4.95-2.3,21.31,1.37,16.36,3.67-2.89-8.05-19.79-10.42-16.9-2.37-33.13,3.28-33.13,3.28Z"/>
          <path class="cls-16" d="m22.3,59.43c-11.39-4.06-9.29-6.76-13.59.05-4.3,6.81-4.45,39.04-2.78,52.5,1.67,13.45,17.42,19.92,36.29,26.59,18.87,6.67,29,3.28,29,3.28,0,0-35.78-5.73-46.93-15.59-11.15-9.86-7.19-24.16-7.51-29.17s.58-26.18,6.06-30.03,20.26,6.16,40.82,10.6c20.56,4.44,25.57,1.88,26.88,1.12,1.32-.76-37.06-8.23-68.24-19.34Z"/>
          <path class="cls-45" d="m9.55,48.39c6.24-2.33,21.05,1.75,29.39,2.57,8.33.82,3.51-4.23,10.26-5.9,6.74-1.67,9.33-3.18,9.33-3.18,0,0-32.48-.16-48.97,6.5Z"/>
          <g>
            <path class="cls-48" d="m62.22,85.72c-3.09.48-4.24,5.8,1.69,5.98,5.82.17,1.59-6.49-1.69-5.98Z"/>
            <path class="cls-11" d="m62.22,85.72c-2.04.19-2.39,3.54.36,4.09,2.72.55,3.98-1.38,3.44-2.02-.54-.64-2.63-2.18-3.8-2.07Z"/>
            <path class="cls-64" d="m60.02,89.53c-.1-.52,2.81,1.74,4.5,1.68,3.08-.1,1.5-2.51,1.81-2.4.31.11,1.24,2.81-1.45,3.11-2.72.3-4.67-1.47-4.85-2.4Z"/>
          </g>
          <g>
            <path class="cls-82" d="m53.04,122.99c-3.05-1.9-8.04,1.87-3.01,6.48,4.94,4.52,6.26-4.46,3.01-6.48Z"/>
            <path class="cls-11" d="m53.04,122.99c-1.92-1.37-4.73,1.29-2.76,3.83,1.95,2.52,4.5,1.79,4.52.83.02-.96-.66-3.88-1.75-4.66Z"/>
            <path class="cls-61" d="m47.91,126.37s1.09,2.32,2.6,3.54c2.76,2.23,3.87-1.42,4.06-1.09.19.32-1.03,4.12-3.91,2.94-2.85-1.16-2.74-5.39-2.74-5.39Z"/>
          </g>
          <g>
            <path class="cls-1" d="m11.99,102.78c-3.08.68-5.77,9.39-.18,9.89,5.49.49,3.46-10.62.18-9.89Z"/>
            <path class="cls-9" d="m11.99,102.78c-2,.24-3.33,5.74-.89,6.75,2.42,1,4.2-2.13,3.88-3.2-.32-1.08-1.85-3.68-2.99-3.54Z"/>
            <path class="cls-84" d="m8.75,108.96c.06-.85,2.15,2.96,3.77,2.93,2.96-.06,2.18-4.07,2.44-3.89.26.18.34,4.67-2.31,5.07-2.67.4-4-2.58-3.9-4.11Z"/>
          </g>
          <path class="cls-54" d="m63.86,115.35c4.15.85,1.83,4.69,1.36,8.13-.24,1.76.43,3.6,1.84,4.5,2.35,1.5,4.6.43,5.61-2.03.67-1.65.24-4.23.93-5.97,1.56-3.94,8.61-.56,10.78.56,2.17,1.12,2.8,3.83,7.42,4.81,5.02,1.06,6.88-2.37,8.68-2.51s3.89-1.37,3.89-1.37c0,0-16.66-1.85-25.43-4.28-8.78-2.43-15.07-1.83-15.07-1.83Z"/>
          <path class="cls-8" d="m104.41,121.25s-1.59,1.15-2.95,1.42c-1.36.26-.92-.41-1.78-.18-.87.24-2.94,2.02-7.47.93-4.52-1.09-5.74-2.31-7.66-3.75-4.16-3.1-7.87-2.49-10.23-1.18-2.93,1.62-.75,7.03-4.12,8.21-3.41,1.2-5.08-2.88-4.42-4.68.86-2.36.49-4.45.49-4.45,0,0-1.12,3.89-1.56,6.41-.43,2.53-1.5,6.53,3.94,7.27s3.63-8.45,7.07-9.69c3.44-1.24,8.44-2.7,11.53,2.44s7.14,6.17,10.11,2.21,4.95-2.28,5.69-2.86,1.37-2.11,1.37-2.11Z"/>
          <path class="cls-37" d="m70.53,121.35c-2.43,1.74-.42,4.21,1,1.85,1.42-2.36-.11-2.49-1-1.85Z"/>
          <path class="cls-35" d="m104.12,116.44c-3.38,3.4-2.4,6.19.75,2.53,3.15-3.66.51-3.8-.75-2.53Z"/>
          <path class="cls-35" d="m55.9,105.92c-4.79,1.09-1.31,4.25,3.57,3.1,4.88-1.15.5-4.02-3.57-3.1Z"/>
          <path class="cls-36" d="m19.72,55.32c-2.79-2.56,12.88-1.45,17.59,3.6,4.71,5.04-14.8-1.03-17.59-3.6Z"/>
          <path class="cls-35" d="m92.99,74.95c-4.21-1.72,3.04-2.95,6.35-.35,3.31,2.6-2.21,2.04-6.35.35Z"/>
          <path class="cls-31" d="m58.8,82.01c-1.17-.13,10.28,2.96,10.26,7.91-.02,4.95,12.3,5.68,15.92,10.13,3.62,4.45,5.12-5.37,12.99-6.57s-18.56-14.04-39.17-11.46Z"/>
          <path class="cls-31" d="m60.79,137.67c-3.3-3.28,4.8-3.76,8.26-6.68,3.46-2.92,2.4,2.61,5.97,2.02,3.57-.6-2.93.5-1.81-5.09s7.75-5.27,7.95-3.13c.2,2.14-2.24,5,4.59,6.5,6.83,1.5,4.45,8.25,2.59,9.3-1.87,1.05-4.48,1.92-4.57.42-.09-1.51.15-3.64-2.4-2.82-2.55.82.4,1.6-.39,1.89-.79.29-11.17,1.64-20.2-2.4Z"/>
          <path class="cls-31" d="m38.21,95.05c-1.64-1.69-.39-7.44-4.51-5.49-4.12,1.95-6.71,1.65-5.55-3.23,1.16-4.88,2.32-10.11,5.64-10.18,3.33-.07,1.26,7.57,5.19,7.62,3.93.04-2.16-3.41,3.87-3.31,6.02.1,11.98,2.5,13.51,4.75,1.53,2.25-3.24.47-3.91,2.14-.67,1.67,4.27,2.16,2.71,3.72s-2.62,7.51,3.2,9.05c5.82,1.54,3.7-6.18,6.48-5.45,2.77.73,6,5.22,8.19,7.44s-5.97,2.37-18.1-1.16c-12.13-3.53-16.78-5.37-16.78-5.37l.06-.53Z"/>
          <path class="cls-31" d="m40.07,132.16c-2.59-1.19,4.76-3.09-3.41-6.62-8.17-3.53-8.2-.83-7.92,1.11.29,1.93-6.85-.19-8.33-5.23s-1.39-5.19,1.42-7.83,9.04,1.68,9.59,3.84-.76-.42,1.03-.5,6.49,4.3,9.62,5.44c3.12,1.13,3.59.46,2.88-2.01-.71-2.46-2.2-5.42,2.9-4.18,5.1,1.24,9.83,4.55,6,4.66-3.83.12-5.87.09-6.61,3.96-.74,3.88,2.17,6.68,3.52,8.45s-1.99,1.64-6.12.79c-4.13-.84-4.57-1.88-4.57-1.88Z"/>
          <path class="cls-19" d="m22.58,47.07c-5.48.7,5.6,12.7,19.79,17.05,14.19,4.35,26.56,3,33.49,3.77,6.93.76,15.47,1.85,24.7,2.63,9.22.78,22.8.31.02-11.78-22.78-12.09-77.99-11.67-77.99-11.67Z"/>
          <g>
            <path class="cls-77" d="m43.95,37.32c-13.84,1.09-1.51,15.98,33.25,18.51,42.17,3.07,29.45-16.82,29.45-16.82,0,0-.96-1.47-3.13-8.52-.73-2.37-6.8-11.19-8.58-13.1-1.43-1.55-5.64.02-7.5-1.04-16.46-9.37-44.42-4.6-43.49,20.97Z"/>
            <path class="cls-14" d="m40.72,44.69s9.78,8.29,37.51,8.44c27.74.15,29-13.03,29-13.03,0,0,9.31,15.22-21.02,17.31-32.67,2.25-45.49-12.73-45.49-12.73Z"/>
            <path class="cls-22" d="m43.95,37.32s4.27,10.43,27.47,4.9c23.19-5.53,24.96-22.8,23.53-24.82s-6.59-.54-6.59-.54c0,0,11.19,13.76-7.3,20.22-18.49,6.46-37.11.25-37.11.25Z"/>
            <path class="cls-60" d="m85.03,19.96c-7.45,8.21-36.15,6.87-31.34.92C54.53-.23,72.39-.54,73.25.42c.13.14.19.29.22.45.27,1.37-2.16,3.54,3.47,6.03,1.58.7,3.35,1.36,5,2.07,4.88,2.15,8.67,4.85,3.1,10.99Z"/>
            <path class="cls-24" d="m87.44,16.35s-.31,5.49-12.65,7.8c-12.34,2.31-20.29-3.5-20.63-7.73,0,0-5.49,8.57-8.13,13.63-2.64,5.05,19.05-.54,29.51-4.85,10.46-4.31,11.59-5.22,11.98-6.65s-.08-2.2-.08-2.2Z"/>
            <path class="cls-27" d="m81.94,8.97c-1.52-.18-3.02-.15-4.4.19-6.77,1.69-11.74,5-8.25-2.44,3.49-7.44,3.83-5.84,3.83-5.84h.35c.27,1.36-2.16,3.52,3.47,6.02,1.58.7,3.35,1.36,5,2.07Z"/>
            <path class="cls-28" d="m43.61,46.89s15.9,3.28,40.44-1.74c20.99-4.29,18.51-16.74,17.84-17.84-.68-1.1,2.95,4.76,3.33,8.3s-12.29,16.84-61.61,11.28Z"/>
            <path class="cls-39" d="m56.23,47.99s3.98,5.34,25.05,4.6,21.85-9.89,21.65-10.26c-.21-.36-21.95,8.46-46.7,5.66Z"/>
            <path class="cls-39" d="m47.72,38.32c-1.03-1.82,18.59-8.47,30.59-13.36,12-4.89,12.84,1.45,12.84,1.45,0,0-.52,18.29-43.42,11.91Z"/>
            <path class="cls-39" d="m58.26,46.43s13.8-1.29,24.82-8.55c11.02-7.26,14.6-11.52,14.6-11.52,0,0,2.84,5.78-10.53,13.32-13.37,7.54-28.89,6.76-28.89,6.76Z"/>
            <path class="cls-39" d="m60.5,21.22c-4.29-6.77,9.19-10.98,20.18-9.74,10.99,1.24-1.09,18.16-20.18,9.74Z"/>
            <path class="cls-67" d="m77.21,18.78c-2.49,3.76,1.01,2.09,3.99.29,2.99-1.79-2.85-2.02-3.99-.29Z"/>
            <path class="cls-67" d="m70.63,39.37c-5.07-.89,4.22-5.48,8.31-4.02s-2.99,4.95-8.31,4.02Z"/>
            <path class="cls-41" d="m45.83,39.73s-4.41,2.37,2.73,4.4c7.14,2.03,16.47-.88,16.47-.88,0,0-13.37,1.59-19.19-3.52Z"/>
            <path class="cls-67" d="m83.25,49.11c-6.45,1.8,4.26,5.68,12.12,1.28,7.86-4.4-3.45-3.7-12.12-1.28Z"/>
          </g>
          <g>
            <path class="cls-57" d="m62.71,57.21c-9.87-7.12,9.63-33.5,29.69-33.54,13.59-.03,25.25,29.86,20.8,39.72-4.45,9.86-38.39,2.55-50.49-6.18Z"/>
            <path class="cls-15" d="m61.22,47.44c-3.61,10.13,20.13,5.21,32.76-2.63,12.63-7.85,15.9,9.58,17.08,10.47,1.18.89-1.17-27.02-18.48-29.85-17.31-2.83-28.99,15.37-31.36,22.01Z"/>
            <path class="cls-68" d="m71.15,52.9c-5.34,1.3,10.11-.88,19.31,1.11s11.42,2.13,10.65,2.17-1.79-3.03,3.04.59c4.84,3.62,6.46-11.52,2.34-16.29-11.92-13.81-9.85,5-20.75,8.43-10.9,3.43-14.59,3.99-14.59,3.99Z"/>
            <path class="cls-16" d="m83.15,25.44c-11.92,4.89-3.97,22.1,4,16.32,7.97-5.78,10.4-22.23-4-16.32Z"/>
            <path class="cls-68" d="m61.48,46.32c-1.67,4.37,6.02,4.12,7.54-1.61s-4.24-7.02-7.54,1.61Z"/>
            <path class="cls-67" d="m97,33.15c-2.85.76-.46,5.78,1.48,5.61,1.94-.17,2.9-6.78-1.48-5.61Z"/>
            <path class="cls-41" d="m90.54,29.36c-1.78.47-.29,3.61.92,3.51s1.82-4.24-.92-3.51Z"/>
            <path class="cls-29" d="m63.37,56.91c-4.35-3.54,18.63-7.12,36.4-1.4,17.77,5.72,17.54,12.58.35,12.1-26.98-.74-36.75-10.7-36.75-10.7Z"/>
            <path class="cls-65" d="m70.84,35.85s-.47-3.41,9.8-9.01c5.53-3.02,10.65-3.24,11.76-3.18s-1.58,6.13-11.73,13.06c-10.16,6.93-9.83-.87-9.83-.87Z"/>
            <path class="cls-6" d="m96.45,47.41c.83-4.66,5.53-2.35,4.89.43-.64,2.78-5.36,2.24-4.89-.43Z"/>
            <path class="cls-7" d="m103.17,44.78c-1.72,2.36.64,3.47,2.05,1.77s-1.46-2.59-2.05-1.77Z"/>
            <path class="cls-23" d="m87.64,34.79c-2.39,1.67.64,3.47,2.05,1.77,1.41-1.7-.07-3.16-2.05-1.77Z"/>
            <path class="cls-33" d="m75.9,45.04c-2.04,3.71,5.08,4.02,6.07,1.6.99-2.43-4.03-5.3-6.07-1.6Z"/>
          </g>
          <path class="cls-4" d="m81.96,47.36c7.31,7.38,9.5,9.24,2.73,14.49-6.77,5.25-12.46.56-14.44-.73-1.99-1.29,11.72-13.75,11.72-13.75Z"/>
          <g>
            <path class="cls-69" d="m81.29,46.44c.81,1.58-2.05,11-4.23,14.24-2.18,3.24-23.76,6.77-35.9.83-6.57-3.22,40.14-15.07,40.14-15.07Z"/>
            <path class="cls-59" d="m20.87,4.48c-3.64.25-10.44,36.38,12.25,52.73,22.69,16.35,45.95-5.02,48.16-10.77C83.5,40.68,29.98,3.86,20.87,4.48Z"/>
            <path class="cls-89" d="m27.36,6.38c-6.22-2.66-10.7,30.71,6.82,45.67,17.51,14.96,37.51-1.16,40.19-4.03,2.68-2.86,1.7-8.58,1.7-8.58,0,0-28.6-24.46-48.7-33.06Z"/>
            <path class="cls-70" d="m27.98,6.65c-1.94-.77-6.34,9.16-3.04,16.82,3.3,7.66,25.64.2,26.56-.77s.8-1.98.8-1.98c0,0-15.98-10.76-24.31-14.07Z"/>
            <path class="cls-34" d="m51.78,23.6c-.93.16-5.39,2.02-24.45,6.71-4.05,1,1.05,15.57,8.8,22.01,5.13,4.26,16.15-24.49,16.36-25.51.21-1.03.8-3.46-.71-3.2Z"/>
            <path class="cls-63" d="m54.42,24.06c-.7,1.04-9.69,21.83-11.95,26.89-2.25,5.06,7.09,7.96,14.72,5.22,7.63-2.75.99-19.65-1.11-27.71-1.13-4.32-1.51-5.12-1.51-5.12l-.15.73Z"/>
            <path class="cls-46" d="m56.18,23.88s4.24,13.94,5.44,22,7.68,5.68,11.01,2.25,3.47-8.23,2.02-9.87c-1.45-1.64-18.47-14.38-18.47-14.38Z"/>
            <path class="cls-20" d="m29.54,32.98c-2.86,2.42,2.56,15.75,6.04,19.23,3.48,3.48,10.04-9.05,13.13-16.27,3.09-7.22,1.83-9.12,1.25-9.64-.58-.53-18.34,4.92-20.42,6.69Z"/>
            <path class="cls-17" d="m56.18,23.88s5.04,12.69,5.84,20.08c.79,7.4,10.11,3.4,11.92-1.12,1.81-4.52-8.91-13.04-17.75-18.97Z"/>
            <path class="cls-16" d="m54.75,63.01c3.29-.21,9.04-1.19,16.93-6.2,7.9-5.01,7.11.43,4.89,4-2.22,3.58-17.11,2.91-21.83,2.2Z"/>
            <path class="cls-32" d="m49.19,36.99c-1.63,4.68,5.4,12.54,7.59,13.89,2.19,1.34,4.06-7.02,1.49-13.85s-4.2-7.83-4.2-7.83c0,0-4.02,5.33-4.88,7.79Z"/>
            <path class="cls-21" d="m28.55,6.99c-.63-.21-1.35,3.92,1.72,8.85,3.08,4.93,16.95,4.82,18.89,4.54,1.93-.28-12.93-10.88-20.61-13.39Z"/>
            <path class="cls-42" d="m28.59,25.24c-1.54-1.2,8.76-2.31,12.7-1.33,3.94.98-8.28,4.78-12.7,1.33Z"/>
            <path class="cls-42" d="m33.06,47.7c-.8-4.58,8.33-1.8,7.11,2.09-1.22,3.89-6.31,2.49-7.11-2.09Z"/>
            <path class="cls-42" d="m42.72,54.17c-2.5-2.48,2.82-8,5.81-8.54,3-.54,10.23,7.48,9.64,9.13-.59,1.66-12.37,2.46-15.45-.6Z"/>
            <path class="cls-30" d="m31.78,56.19c-3.07-4.19,5.38,1.93,15.59,2.36,10.21.43,23.64-6,23.64-6,0,0-4.9,7.8-17,9.74-12.1,1.94-22.23-6.09-22.23-6.09Z"/>
            <path class="cls-67" d="m64.74,46.74c-2.08-.33-.15,3.1,1.39,3.28,1.54.18-.33-3.11-1.39-3.28Z"/>
            <path class="cls-67" d="m39.22,24.08c-1.19,1.7,1.08.51,2.07-.17s-1.25-1.01-2.07.17Z"/>
          </g>
          <path class="cls-66" d="m69.36,5.31c1.12-5.49,11.24-5.18,9.72,1.7s-10.84,3.79-9.72-1.7Z"/>
          <path class="cls-85" d="m66.71,24.62c-.23-4.73,8.42-6.21,8.92-.56.5,5.66-8.67,5.67-8.92.56Z"/>
          <path class="cls-10" d="m67.08,22.86s-1.09,2.27,2.3,4.29c3.38,2.02,5.85-.83,5.85-.83,0,0-1.58,5.37-6.84,3.34-5.26-2.03-1.3-6.8-1.3-6.8Z"/>
          <path class="cls-10" d="m69.28,5.9s.44,2.95,4.63,3.74c4.19.79,5.28-3.24,5.28-3.24,0,0,.6,2.79-2.38,5.01s-8.02-.09-7.52-5.5Z"/>
          <path class="cls-40" d="m74.46,4.36c-2.21,2.3,2.34,3.28,2.98,2.51.63-.77-1.16-4.41-2.98-2.51Z"/>
          <path class="cls-43" d="m74.24,24.7c-1.42,1.65-.56,2.65.42,1.34.98-1.31-.03-1.8-.42-1.34Z"/>
          <path class="cls-72" d="m17.99,31.77s3.63,13.7,8.41,19.08c4.79,5.38,8.77,7.73,8.77,7.73,0,0-8.54-3.83-13.18-12.2-6.71-12.09-4-14.61-4-14.61Z"/>
        </g>
      </g>
    </g>
  </g>
</svg>