<?xml version="1.0" encoding="UTF-8"?>
<svg xmlns="http://www.w3.org/2000/svg" xmlns:xlink="http://www.w3.org/1999/xlink" viewBox="0 0 76.35 67.18">
  <defs>
    <style>
      .cls-1 {
        fill: url(#Gradient_69);
      }

      .cls-2, .cls-3, .cls-4, .cls-5, .cls-6 {
        opacity: .3;
      }

      .cls-2, .cls-3, .cls-7, .cls-5, .cls-8, .cls-6, .cls-9, .cls-10 {
        mix-blend-mode: multiply;
      }

      .cls-2, .cls-9 {
        fill: #d57f7f;
      }

      .cls-11, .cls-4 {
        mix-blend-mode: soft-light;
      }

      .cls-11, .cls-12 {
        fill: #ffc733;
      }

      .cls-13 {
        isolation: isolate;
      }

      .cls-14 {
        fill: url(#Gradient_67);
      }

      .cls-15 {
        fill: url(#Gradient_74-5);
      }

      .cls-3 {
        fill: #e7707f;
      }

      .cls-4 {
        fill: #ffbf00;
      }

      .cls-16 {
        fill: url(#Gradient_74);
      }

      .cls-17 {
        fill: url(#Gradient_74-7);
      }

      .cls-7 {
        fill: #df795f;
        opacity: .2;
      }

      .cls-18 {
        fill: url(#Gradient_74-6);
      }

      .cls-19 {
        fill: url(#Gradient_74-3);
      }

      .cls-5 {
        fill: #d65a6b;
      }

      .cls-20 {
        fill: #ffeb4f;
      }

      .cls-8 {
        fill: #d6512f;
        opacity: .4;
      }

      .cls-21 {
        fill: #ffff75;
      }

      .cls-22 {
        fill: url(#Gradient_78);
      }

      .cls-23 {
        fill: url(#Gradient_74-4);
      }

      .cls-24 {
        fill: #ffe34f;
      }

      .cls-6, .cls-10 {
        fill: #ea7e80;
      }

      .cls-25 {
        fill: #ff9fdb;
      }

      .cls-26 {
        fill: url(#Gradient_74-2);
      }

      .cls-10 {
        opacity: .5;
      }
    </style>
    <linearGradient id="Gradient_67" data-name="Gradient 67" x1="38.27" y1="66.27" x2="38.27" y2="0" gradientUnits="userSpaceOnUse">
      <stop offset=".05" stop-color="#ff8d1d"/>
      <stop offset=".34" stop-color="#ffa32e"/>
      <stop offset=".76" stop-color="#ffbe44"/>
      <stop offset="1" stop-color="#ffc94c"/>
    </linearGradient>
    <linearGradient id="Gradient_74" data-name="Gradient 74" x1="29.44" y1="35.08" x2="29.44" y2="20.33" gradientUnits="userSpaceOnUse">
      <stop offset="0" stop-color="#ffce00"/>
      <stop offset=".54" stop-color="#eb7f13"/>
      <stop offset=".71" stop-color="#e0630d"/>
      <stop offset="1" stop-color="#d23b06"/>
    </linearGradient>
    <linearGradient id="Gradient_74-2" data-name="Gradient 74" x1="39.17" y1="37.22" x2="39.17" y2="30.17" xlink:href="#Gradient_74"/>
    <linearGradient id="Gradient_74-3" data-name="Gradient 74" x1="59.16" y1="52.43" x2="59.16" y2="35.25" xlink:href="#Gradient_74"/>
    <linearGradient id="Gradient_74-4" data-name="Gradient 74" x1="9.17" y1="43.77" x2="9.17" y2="37.39" xlink:href="#Gradient_74"/>
    <linearGradient id="Gradient_74-5" data-name="Gradient 74" x1="50.43" y1="11.18" x2="50.43" y2="5.41" xlink:href="#Gradient_74"/>
    <linearGradient id="Gradient_69" data-name="Gradient 69" x1="33.26" y1="3.36" x2="33.26" y2="0" gradientUnits="userSpaceOnUse">
      <stop offset="0" stop-color="#ffa41d"/>
      <stop offset=".52" stop-color="#f27210"/>
      <stop offset="1" stop-color="#e84a06"/>
    </linearGradient>
    <linearGradient id="Gradient_74-6" data-name="Gradient 74" x1="39.17" y1="23.29" x2="39.17" y2="19.49" xlink:href="#Gradient_74"/>
    <linearGradient id="Gradient_74-7" data-name="Gradient 74" x1="18.3" y1="259.61" x2="18.3" y2="255.81" gradientTransform="translate(-91.55 -149) rotate(-34.98)" xlink:href="#Gradient_74"/>
    <linearGradient id="Gradient_78" data-name="Gradient 78" x1="73.76" y1="48.5" x2="73.76" y2="40.21" gradientUnits="userSpaceOnUse">
      <stop offset="0" stop-color="#ff721d"/>
      <stop offset=".39" stop-color="#dd5713"/>
      <stop offset="1" stop-color="#ae3106"/>
    </linearGradient>
  </defs>
  <g class="cls-13">
    <g id="Layer_2" data-name="Layer 2">
      <g id="objects">
        <g>
          <path class="cls-25" d="m26.17,1.01c-.76.35-9.69,4.4-17.79,13.51C-.57,24.59-.34,28.16.23,30.71s11.49,33.24,17.37,35.81c5.88,2.57,41.15-3.12,47.49-4.99,6.34-1.87-32.07-57.62-32.07-57.62l-6.86-2.9Z"/>
          <path class="cls-14" d="m75.66,57.41c-2.24,2.06-8.55,3.87-16.19,5.32h-.05c-16.37,3.09-38.83,4.45-40.68,2.88-1.59-1.36-7.89-12.8-12.57-22.7-.04-.08-.08-.16-.11-.24C2.83,35.84.42,29.78.9,28.39c.42-1.23,1.12-2.66,2.03-4.21,0-.01,0-.02.01-.02.58-1,1.25-2.05,2-3.13C11.12,12.04,22.27,1.02,29.16.13c.76-.1,1.67-.14,2.71-.12-.58.44-.88,1.23.99,2.49,2.88,1.95,9.25.33,11.85-1.01,11.61,2.03,24.72,5.59,25.75,6.99,3.33,4.54,4.56,19.52,5,31.73-.03,0-.05,0-.08.01-2.08.35-3.09,4.3-2.32,6.84.5,1.65,1.68,2.08,2.6,2.14.06,4.92,0,8.22,0,8.22Z"/>
          <path class="cls-8" d="m75.66,57.41c-2.66,1.62-53.26,9.82-56.92,8.2-2.22-.98-8.16-12.58-12.57-22.7-.04-.08-.08-.16-.11-.24-2.82-6.48-5-12.32-5.16-14.29.63,3.51,64.37-15.04,68.05-14.81,2.13.13,4.96,14.41,6.43,26.64-2.08.35-3.09,4.3-2.32,6.84.5,1.65,1.68,2.08,2.6,2.14.2,0,.39,0,.55,0,.28,4.55.16,7.79-.55,8.22Z"/>
          <path class="cls-4" d="m20.62,65.15c4.57.46-13.02-5.85,7.01-11.32,20.03-5.47,43.9,3.31,44.55,3.86.65.55-26.95,8.5-51.56,7.46Z"/>
          <path class="cls-11" d="m10.38,27.59c-5.49.15,8.62-20.01,22.64-23.67,14.02-3.66,33.77,5.06,34.23,7.43S21.97,27.26,10.38,27.59Z"/>
          <path class="cls-16" d="m22.46,25.01c-1.25,5.06,1.09,8.33,6.71,9.91s8.24-8.8,7.44-12.64-13.1-1.52-14.15,2.73Z"/>
          <path class="cls-26" d="m38.21,30.84c-3.49,6.49.52,8.31,2.66,4.15s-1.73-5.87-2.66-4.15Z"/>
          <path class="cls-19" d="m52.88,41.42c-4.09,10.89,1,6.38,7.75,10.25s7.58-8.13,4.74-13.61c-2.84-5.49-10.42-2.14-12.48,3.37Z"/>
          <path class="cls-23" d="m7.49,37.91c-2.6,2.56,1.52,7.07,3.54,5.56,2.02-1.51-1.14-7.92-3.54-5.56Z"/>
          <path class="cls-15" d="m43.97,6.92c-6.75,4.29,3.83,5.3,12.42,3.23,8.59-2.07-6.02-7.3-12.42-3.23Z"/>
          <path class="cls-1" d="m31.87,0c2.22-.07,3.88,3.36,3.88,3.36,0,0-7.81-.73-3.88-3.36Z"/>
          <path class="cls-6" d="m51.68,27.18c-.58,3.71.53,7.19,3.1,6.36,3.07-.98,6.83-1.3,6.99-4.79.02-.61.08-1.26.12-1.9.18-3.05.12-6.18-3.7-5.99,0,0-4.56-.05-6.01,4.26-.23.67-.4,1.37-.5,2.06Z"/>
          <path class="cls-10" d="m51.68,27.18l.03.46s.39-2.29,2.03-3.95c1.64-1.65,3.72-2.77,5.81-1.55,2.07,1.23,2.34,4.7,2.34,4.7.18-3.05.12-6.18-3.7-5.99,0,0-4.56-.05-6.01,4.26-.23.67-.4,1.37-.5,2.06Z"/>
          <path class="cls-6" d="m37.48,58.45c-1.08,2.01-1.52,3.95-.46,3.6,1.27-.42,2.62-.45,3.5-2.35.15-.33.33-.68.49-1.04.78-1.66,1.5-3.38.17-3.42,0,0-1.53-.2-3.04,2.1-.24.36-.46.74-.65,1.11Z"/>
          <path class="cls-10" d="m37.48,58.45l-.1.26s.67-1.24,1.62-2.08c.95-.84,1.91-1.38,2.33-.63.41.75-.32,2.66-.32,2.66.78-1.66,1.5-3.38.17-3.42,0,0-1.53-.2-3.04,2.1-.24.36-.46.74-.65,1.11Z"/>
          <path class="cls-9" d="m59.42,62.73c-16.37,3.09-38.83,4.45-40.68,2.88C16.03,63.31-.29,31.83.9,28.39c.42-1.23,1.12-2.66,2.03-4.21-.85,1.57-1.52,3.32-.89,4.16,1.25,1.68,1.24,4.02,2.31,7.92,1.81,6.63,8.35,20.91,14.46,25.13,5.97,4.14,39.14,1.47,40.61,1.35Z"/>
          <path class="cls-9" d="m37.51,33.14c-.06,3.25,2.89,1.98,3.74,0,.85-1.98-1.93-2.9-2.62-2.75-.69.15-1.1,1.83-1.12,2.75Z"/>
          <path class="cls-9" d="m6.81,38.96c-.86,1.42,2.46,3.75,4.17,3.18,1.71-.57-1.85-7.02-4.17-3.18Z"/>
          <path class="cls-3" d="m22.46,25.01c-1.98,3.33,3.83,7.85,8.8,6.33,4.97-1.52,6.58-7.86,4.31-9.76-2.27-1.89-10.59-.82-13.11,3.43Z"/>
          <path class="cls-2" d="m44.8,6.92c-3.16,1.74,6.63,4.57,10.8,2.77,4.17-1.8-4.03-6.49-10.8-2.77Z"/>
          <path class="cls-3" d="m55.06,38.06c-4.12,5.1,3.48,10.88,7.9,11.48,4.42.61,4.76-9.23,1.44-12.84-3.32-3.61-8.08-.2-9.34,1.36Z"/>
          <path class="cls-12" d="m51.77,31.19s.95,2.12,2.86,1.98c1.91-.13,4.88-.72,5.77-1.7s1.38-2.89,1.38-2.89c0,0,.06,1.05-.38,2.3-.44,1.25-3,1.72-5.15,2.63-2.15.91-3.14.55-3.69-.22-.55-.77-.8-2.1-.8-2.1Z"/>
          <path class="cls-12" d="m36.84,59.83c-.47,3.07,2.19,1.57,2.81,1.1.62-.46,1.11-1.74,1.11-1.74,0,0-.14,1.04-1.11,1.87-.96.83-2.15,1.52-3.12,1.26-.97-.26.3-2.48.3-2.48Z"/>
          <path class="cls-12" d="m58.68,50.75c-.99-1.03,3.84-.65,5.54-.88,1.71-.24.65,2.36-.93,2.55-1.58.2-4.62-1.67-4.62-1.67Z"/>
          <path class="cls-12" d="m28.04,34.56c-2.27-1.03,5.61-4.7,6.75-4.19,1.14.51-2.01,5.92-6.75,4.19Z"/>
          <path class="cls-24" d="m4.48,28.52s12.16-1.95,14.42-2.67c2.26-.71.67-3.26,7.28-6.73,6.6-3.46,6.85.56,13.49.19,6.63-.37,24.44-6.36,26.97-8.04,2.53-1.68-1.07-4.9-1.07-4.9,0,0,3.96.39,4.91,2.1.96,1.71.86,4.38-11.92,7.71-12.78,3.33-20.06,4.83-21.16,5.11-1.11.28-2.15-1.66-8.69-.52s-6.64,4.58-6.64,4.58c0,0-5.71,2.47-17.58,3.16Z"/>
          <path class="cls-12" d="m37.65,37.06c-.7-1.01,3.31-2.63,3.48-2.64.17,0-1.09,2.35-2.22,2.79-1.14.45-1.26-.16-1.26-.16Z"/>
          <path class="cls-18" d="m38.65,19.85c-1.88,3.5.28,4.48,1.43,2.24,1.15-2.25-.93-3.16-1.43-2.24Z"/>
          <path class="cls-9" d="m38.27,21.09c-.03,1.75,1.56,1.07,2.02,0s-1.04-1.56-1.41-1.48c-.37.08-.6.99-.6,1.48Z"/>
          <path class="cls-12" d="m38.35,23.21c-.38-.55,1.78-1.42,1.88-1.42.09,0-.59,1.27-1.2,1.51-.61.24-.68-.09-.68-.09Z"/>
          <path class="cls-17" d="m69.88,50.68c.46,3.94,2.8,3.51,2.45,1.01-.35-2.5-2.58-2.06-2.45-1.01Z"/>
          <path class="cls-9" d="m70.28,51.91c.98,1.45,1.89-.02,1.65-1.16-.24-1.14-1.75-.68-2.01-.4-.26.28.08,1.15.35,1.56Z"/>
          <path class="cls-12" d="m71.55,53.6c-.62-.23.65-2.19.72-2.24.07-.05.25,1.37-.12,1.92-.36.55-.6.32-.6.32Z"/>
          <path class="cls-12" d="m8.69,43.29c-1.34-1.34,2.74-.73,2.74-.73,0,0-.12,1.15-1.25,1.2-1.14.05-1.49-.48-1.49-.48Z"/>
          <path class="cls-22" d="m75.38,40.21s-2.5,5.45-1.45,8.28c0,0-2.2-.55-1.74-4.14.46-3.59,3.19-4.14,3.19-4.14Z"/>
          <path class="cls-2" d="m72.19,44.36c.87,2.7.91.33,2.38-2.03,1.47-2.35-2.11-1.93-2.38,2.03Z"/>
          <path class="cls-5" d="m54.5,38.67c-.46,1.3-1.51,5.91,3.54,5.17s8.75-.62,8.75-.62c0,0,.15-7.67-5.53-7.73-5.68-.06-6.76,3.17-6.76,3.17Z"/>
          <path class="cls-5" d="m22.38,25.36s2.06-2.81,6.51,0c4.45,2.81,7.37-3.95,6.87-4.27-.5-.32-3.91-1.68-8.12-.09-5.51,2.08-5.25,4.36-5.25,4.36Z"/>
          <path class="cls-24" d="m23.85,32.03s1.62,1.76,5.24,2.39c3.61.63,5.16-1.84,5.16-1.84,0,0-1.07,2.91-4.12,2.91s-6.28-3.46-6.28-3.46Z"/>
          <path class="cls-24" d="m51.68,45.15s-.2,2.33,1.65,3.64c1.85,1.31,4.26,1.07,5.64,1.83s2.18,1.66,4.55,1.37,3.02-3.4,3.02-3.4c0,0-.51,3.85-2.99,4.04-2.48.19-2.86-1.55-5.86-2.24-3-.69-4.61,0-5.4-1.9-.46-1.1-.6-3.35-.6-3.35Z"/>
          <path class="cls-7" d="m15.75,31.52c-3.18,5.2-2.23,7.77-3.34,12.25-1.11,4.48-2.85,15.31,7.86,11.47,15.91-5.7,27.79-5.55,28.42-5.7.63-.15,1.36-7.04,3.08-10.23,1.72-3.19-5.44-10.76-7.8-10.89-2.36-.13-.6,9.25-4.51,10.24-3.91.99-3.57-5.06-4.43-4.62s2.41,5.91-5.23,3.17-6.31-9.62-9.63-9.27c-3.32.35-3.39,1.87-4.43,3.57Z"/>
          <path class="cls-7" d="m51.53,18.55c-1.85.64,1.18,2.29,6.39,1.69,5.21-.6,5.87,2.56,5.45,7.47-.43,4.91,4.57,7.85,7.45,9.13,2.88,1.28,1.04-16.02-.77-19.61-1.81-3.59-9.94-1.66-18.52,1.33Z"/>
          <path class="cls-21" d="m51.58,17.44c-1.42-.09,6.38-4.63,11.1-4.26,4.72.37-5.74,4.6-11.1,4.26Z"/>
          <path class="cls-21" d="m18.23,26.51c-1.42.24,1.72-2.45,3.27-2.79,1.55-.35,1.46,1.43.56,2.02-.89.59-3.83.78-3.83.78Z"/>
          <path class="cls-20" d="m42.13,9.99s-.1,2.21,8.29,1.6c8.4-.62,8.6-2.89,8.6-2.89,0,0-2.43,2.04-9.63,2.18s-7.27-.89-7.27-.89Z"/>
        </g>
      </g>
    </g>
  </g>
</svg>